<svg xmlns="http://www.w3.org/2000/svg" width="2500" height="1956" viewBox="0 0.001 277.525 217.13">
    <path fill="#E31836"
        d="M40.839 159.354c-7.722-3.607-14.05-6.521-14.05-12.418 0-4.514 3.604-7.791 10.735-7.791 2.614 0 4.755.315 6.97.722 1.163.194 2.398.362 3.414.362 6.228 0 9.735-3.703 12.076-10.752l.969-2.881c-.989-.396-11.167-4.861-24.429-4.861-21.087 0-32.223 13.523-32.212 27.558 0 7.086 2.209 12.214 5.676 16.259 4.477 5.197 10.853 8.596 16.816 11.51 8.689 4.26 16.527 7.406 16.527 13.729.011 5.605-5.786 8.8-13.528 8.8-10.625 0-19.904-6.065-21.083-6.802L0 209.125c1.557.873 12.782 8.006 31.261 8.006 19.678-.011 34.584-11.299 34.584-28.667 0-17.283-13.818-23.68-25.006-29.11M155.486 215.228h-26.688l-29.035-39.481h-.426v21.303c0 15.144-10.789 19.337-19.857 19.337h-1.251V123.64h20.966v37.783h.427l28.488-37.783h25.442l-35.716 43.785 37.65 47.803zM154.734 24.298c-7.385 1.395-18.32 8.09-18.3 19.946.026 10.754 8.832 17.284 8.858 31.39.047 10.602-5.809 17.747-12.13 21.708a97.161 97.161 0 0 1 8.437-.379c6.465-.016 10.357.6 10.604.646l33.116-40.654c-9.203-13.773-19.938-24.454-30.585-32.657M182.56 134.06c4.171-6.49 4.703-16.843 5.05-27.378.399-9.831 2.446-17.216 15.603-17.269 2.908-.011 5.676.395 10.709.376 19.263-.079 31.834-6.709 39.655-11.072-15.979-10.187-39.309-20.593-68.255-21.761-1.878 5.32-16.563 46.106-17.668 49.392.174.2 2.745 3.08 5.954 8.692 4.728 7.716 7.265 14.249 8.952 19.04" />
    </svg>