<?xml version="1.0" standalone="no"?>
<!DOCTYPE svg PUBLIC "-//W3C//DTD SVG 20010904//EN"
 "http://www.w3.org/TR/2001/REC-SVG-20010904/DTD/svg10.dtd">
<svg version="1.0" xmlns="http://www.w3.org/2000/svg"
 width="1000.000000pt" height="1000.000000pt" viewBox="0 0 1000.000000 1000.000000"
 preserveAspectRatio="xMidYMid meet">

<g transform="translate(0.000000,1000.000000) scale(0.100000,-0.100000)"
fill="#FFFFFF" stroke="none">
<path d="M4705 9994 c-730 -57 -1337 -220 -1938 -520 -1314 -658 -2270 -1852
-2621 -3274 -92 -371 -134 -701 -143 -1105 -23 -1128 328 -2207 1012 -3113
253 -336 577 -669 827 -850 238 -172 587 -297 928 -333 138 -14 395 -7 530 16
656 109 1210 507 1514 1088 58 109 120 262 160 392 l24 80 1 -1189 1 -1189
178 6 c1621 57 3116 900 4005 2258 441 675 704 1414 794 2239 13 126 18 245
18 500 0 368 -12 521 -66 840 -228 1361 -1028 2583 -2190 3343 -671 439 -1416
704 -2229 793 -137 15 -686 27 -805 18z m735 -639 c994 -103 1903 -529 2614
-1225 557 -546 931 -1166 1146 -1903 216 -737 233 -1528 49 -2275 -185 -755
-571 -1446 -1119 -2006 -546 -557 -1166 -931 -1903 -1146 -153 -45 -434 -108
-559 -126 l-48 -6 0 1853 0 1854 1193 -1193 1193 -1193 103 107 c112 118 301
347 301 367 0 6 -568 580 -1262 1274 l-1263 1263 1263 1263 c694 694 1262
1268 1262 1274 0 20 -189 249 -301 367 l-103 107 -1193 -1193 -1193 -1193 0
1792 0 1791 -27 6 c-98 19 -567 51 -585 40 -5 -3 -8 -1331 -8 -2952 l-1 -2947
-34 110 c-175 568 -554 1014 -1080 1270 -159 78 -324 134 -645 219 -537 143
-713 228 -946 461 -206 205 -333 440 -396 728 -32 146 -32 417 0 563 87 400
298 710 636 929 356 232 820 288 1231 149 107 -36 273 -120 365 -185 91 -64
253 -219 306 -293 21 -30 43 -55 47 -56 6 0 480 324 506 346 8 7 -51 85 -139
188 -249 289 -602 513 -975 620 -508 145 -1036 94 -1505 -145 -619 -315 -1029
-907 -1111 -1603 -17 -144 -6 -473 20 -599 87 -424 258 -756 540 -1049 188
-195 347 -312 586 -428 166 -81 298 -127 615 -210 313 -82 451 -129 595 -199
728 -357 1021 -1230 658 -1956 -188 -374 -530 -650 -937 -755 -236 -61 -482
-61 -720 -1 -144 37 -196 61 -374 172 -139 87 -158 103 -342 288 -486 487
-824 1030 -1044 1680 -157 460 -229 906 -229 1406 0 687 143 1306 444 1920
293 599 737 1141 1274 1555 669 516 1516 831 2391 889 178 12 518 5 704 -14z"/>
</g>
</svg>
